<mxfile host="app.diagrams.net" agent="Mozilla/5.0 (Windows NT 10.0; Win64; x64) AppleWebKit/537.36 (KHTML, like Gecko) Chrome/131.0.0.0 Safari/537.36 Edg/131.0.0.0" version="25.0.1">
  <diagram name="หน้า-1" id="woDdHnY3AF-1kKCcL0hJ">
    <mxGraphModel dx="3390" dy="1223" grid="1" gridSize="10" guides="1" tooltips="1" connect="1" arrows="1" fold="1" page="1" pageScale="1" pageWidth="827" pageHeight="1169" math="0" shadow="0">
      <root>
        <mxCell id="0" />
        <mxCell id="1" parent="0" />
        <mxCell id="zc6w6XbYaLyqJV-c7VdD-13" value="" style="edgeStyle=orthogonalEdgeStyle;rounded=0;orthogonalLoop=1;jettySize=auto;html=1;" edge="1" parent="1" source="zc6w6XbYaLyqJV-c7VdD-1" target="zc6w6XbYaLyqJV-c7VdD-11">
          <mxGeometry relative="1" as="geometry" />
        </mxCell>
        <mxCell id="zc6w6XbYaLyqJV-c7VdD-1" value="Roman" style="ellipse;whiteSpace=wrap;html=1;" vertex="1" parent="1">
          <mxGeometry x="-473" y="40" width="120" height="80" as="geometry" />
        </mxCell>
        <mxCell id="zc6w6XbYaLyqJV-c7VdD-8" value="" style="edgeStyle=orthogonalEdgeStyle;rounded=0;orthogonalLoop=1;jettySize=auto;html=1;" edge="1" parent="1" source="zc6w6XbYaLyqJV-c7VdD-2" target="zc6w6XbYaLyqJV-c7VdD-3">
          <mxGeometry relative="1" as="geometry" />
        </mxCell>
        <mxCell id="zc6w6XbYaLyqJV-c7VdD-2" value="Start" style="ellipse;whiteSpace=wrap;html=1;" vertex="1" parent="1">
          <mxGeometry x="353" y="40" width="120" height="80" as="geometry" />
        </mxCell>
        <mxCell id="zc6w6XbYaLyqJV-c7VdD-7" value="" style="edgeStyle=orthogonalEdgeStyle;rounded=0;orthogonalLoop=1;jettySize=auto;html=1;" edge="1" parent="1" source="zc6w6XbYaLyqJV-c7VdD-3" target="zc6w6XbYaLyqJV-c7VdD-6">
          <mxGeometry relative="1" as="geometry" />
        </mxCell>
        <mxCell id="zc6w6XbYaLyqJV-c7VdD-3" value="รับข้อมูลเลขUser&amp;nbsp;" style="shape=parallelogram;perimeter=parallelogramPerimeter;whiteSpace=wrap;html=1;fixedSize=1;" vertex="1" parent="1">
          <mxGeometry x="318" y="170" width="190" height="60" as="geometry" />
        </mxCell>
        <mxCell id="zc6w6XbYaLyqJV-c7VdD-10" value="" style="edgeStyle=orthogonalEdgeStyle;rounded=0;orthogonalLoop=1;jettySize=auto;html=1;" edge="1" parent="1" source="zc6w6XbYaLyqJV-c7VdD-6" target="zc6w6XbYaLyqJV-c7VdD-9">
          <mxGeometry relative="1" as="geometry" />
        </mxCell>
        <mxCell id="zc6w6XbYaLyqJV-c7VdD-6" value="Roman" style="shape=process;whiteSpace=wrap;html=1;backgroundOutline=1;" vertex="1" parent="1">
          <mxGeometry x="323" y="300" width="180" height="60" as="geometry" />
        </mxCell>
        <mxCell id="zc6w6XbYaLyqJV-c7VdD-9" value="END" style="ellipse;whiteSpace=wrap;html=1;" vertex="1" parent="1">
          <mxGeometry x="353" y="430" width="120" height="80" as="geometry" />
        </mxCell>
        <mxCell id="zc6w6XbYaLyqJV-c7VdD-14" value="" style="edgeStyle=orthogonalEdgeStyle;rounded=0;orthogonalLoop=1;jettySize=auto;html=1;" edge="1" parent="1" source="zc6w6XbYaLyqJV-c7VdD-11" target="zc6w6XbYaLyqJV-c7VdD-12">
          <mxGeometry relative="1" as="geometry" />
        </mxCell>
        <mxCell id="zc6w6XbYaLyqJV-c7VdD-11" value="กำหนด เลข 1 - 1000&lt;br&gt;&lt;div&gt;&lt;span style=&quot;background-color: initial;&quot;&gt;ของ Roman&lt;/span&gt;&amp;nbsp;&lt;/div&gt;" style="rounded=0;whiteSpace=wrap;html=1;" vertex="1" parent="1">
          <mxGeometry x="-473" y="160" width="120" height="60" as="geometry" />
        </mxCell>
        <mxCell id="zc6w6XbYaLyqJV-c7VdD-16" value="" style="edgeStyle=orthogonalEdgeStyle;rounded=0;orthogonalLoop=1;jettySize=auto;html=1;" edge="1" parent="1" source="zc6w6XbYaLyqJV-c7VdD-12" target="zc6w6XbYaLyqJV-c7VdD-15">
          <mxGeometry relative="1" as="geometry" />
        </mxCell>
        <mxCell id="zc6w6XbYaLyqJV-c7VdD-12" value="กำหนด เลขRoman&amp;nbsp;I&amp;nbsp; - M" style="rounded=0;whiteSpace=wrap;html=1;" vertex="1" parent="1">
          <mxGeometry x="-489.5" y="260" width="153" height="60" as="geometry" />
        </mxCell>
        <mxCell id="zc6w6XbYaLyqJV-c7VdD-32" value="" style="edgeStyle=orthogonalEdgeStyle;rounded=0;orthogonalLoop=1;jettySize=auto;html=1;" edge="1" parent="1" source="zc6w6XbYaLyqJV-c7VdD-15" target="zc6w6XbYaLyqJV-c7VdD-31">
          <mxGeometry relative="1" as="geometry" />
        </mxCell>
        <mxCell id="zc6w6XbYaLyqJV-c7VdD-15" value="แสดงข้อมูลเลขUserที่กรอก&amp;nbsp;" style="shape=parallelogram;perimeter=parallelogramPerimeter;whiteSpace=wrap;html=1;fixedSize=1;" vertex="1" parent="1">
          <mxGeometry x="-508" y="360" width="190" height="60" as="geometry" />
        </mxCell>
        <mxCell id="zc6w6XbYaLyqJV-c7VdD-22" style="edgeStyle=orthogonalEdgeStyle;rounded=0;orthogonalLoop=1;jettySize=auto;html=1;" edge="1" parent="1" source="zc6w6XbYaLyqJV-c7VdD-17" target="zc6w6XbYaLyqJV-c7VdD-21">
          <mxGeometry relative="1" as="geometry" />
        </mxCell>
        <mxCell id="zc6w6XbYaLyqJV-c7VdD-35" style="edgeStyle=orthogonalEdgeStyle;rounded=0;orthogonalLoop=1;jettySize=auto;html=1;entryX=0.5;entryY=0;entryDx=0;entryDy=0;" edge="1" parent="1" source="zc6w6XbYaLyqJV-c7VdD-17" target="zc6w6XbYaLyqJV-c7VdD-34">
          <mxGeometry relative="1" as="geometry">
            <Array as="points">
              <mxPoint x="-533" y="570" />
            </Array>
          </mxGeometry>
        </mxCell>
        <mxCell id="zc6w6XbYaLyqJV-c7VdD-17" value="Loop i 0 ถึง 13" style="rhombus;whiteSpace=wrap;html=1;" vertex="1" parent="1">
          <mxGeometry x="-486.5" y="530" width="147" height="80" as="geometry" />
        </mxCell>
        <mxCell id="zc6w6XbYaLyqJV-c7VdD-18" value="Y" style="text;html=1;align=center;verticalAlign=middle;whiteSpace=wrap;rounded=0;" vertex="1" parent="1">
          <mxGeometry x="-520" y="530" width="60" height="30" as="geometry" />
        </mxCell>
        <mxCell id="zc6w6XbYaLyqJV-c7VdD-19" value="N" style="text;html=1;align=center;verticalAlign=middle;whiteSpace=wrap;rounded=0;" vertex="1" parent="1">
          <mxGeometry x="-370" y="530" width="60" height="30" as="geometry" />
        </mxCell>
        <mxCell id="zc6w6XbYaLyqJV-c7VdD-26" value="" style="edgeStyle=orthogonalEdgeStyle;rounded=0;orthogonalLoop=1;jettySize=auto;html=1;" edge="1" parent="1" source="zc6w6XbYaLyqJV-c7VdD-21" target="zc6w6XbYaLyqJV-c7VdD-23">
          <mxGeometry relative="1" as="geometry" />
        </mxCell>
        <mxCell id="zc6w6XbYaLyqJV-c7VdD-21" value="เอาค่าที่ผู้ใช้กรอกมา หาร กับ&lt;div&gt;เลข 1 - 1000 ของ Roman&lt;/div&gt;&lt;div&gt;และเก็บไว้ที่ re&lt;/div&gt;" style="rounded=0;whiteSpace=wrap;html=1;" vertex="1" parent="1">
          <mxGeometry x="-338.5" y="620" width="153" height="60" as="geometry" />
        </mxCell>
        <mxCell id="zc6w6XbYaLyqJV-c7VdD-28" value="" style="edgeStyle=orthogonalEdgeStyle;rounded=0;orthogonalLoop=1;jettySize=auto;html=1;" edge="1" parent="1" source="zc6w6XbYaLyqJV-c7VdD-23" target="zc6w6XbYaLyqJV-c7VdD-27">
          <mxGeometry relative="1" as="geometry" />
        </mxCell>
        <mxCell id="zc6w6XbYaLyqJV-c7VdD-23" value="Loop j 0 ถึง re" style="rhombus;whiteSpace=wrap;html=1;" vertex="1" parent="1">
          <mxGeometry x="-336" y="750" width="147" height="80" as="geometry" />
        </mxCell>
        <mxCell id="zc6w6XbYaLyqJV-c7VdD-24" value="Y" style="text;html=1;align=center;verticalAlign=middle;whiteSpace=wrap;rounded=0;" vertex="1" parent="1">
          <mxGeometry x="-367" y="750" width="60" height="30" as="geometry" />
        </mxCell>
        <mxCell id="zc6w6XbYaLyqJV-c7VdD-25" value="N" style="text;html=1;align=center;verticalAlign=middle;whiteSpace=wrap;rounded=0;" vertex="1" parent="1">
          <mxGeometry x="-217" y="750" width="60" height="30" as="geometry" />
        </mxCell>
        <mxCell id="zc6w6XbYaLyqJV-c7VdD-30" value="" style="edgeStyle=orthogonalEdgeStyle;rounded=0;orthogonalLoop=1;jettySize=auto;html=1;" edge="1" parent="1" source="zc6w6XbYaLyqJV-c7VdD-27" target="zc6w6XbYaLyqJV-c7VdD-29">
          <mxGeometry relative="1" as="geometry" />
        </mxCell>
        <mxCell id="zc6w6XbYaLyqJV-c7VdD-27" value="แสดงข้อมูลเลขRoman&amp;nbsp;" style="shape=parallelogram;perimeter=parallelogramPerimeter;whiteSpace=wrap;html=1;fixedSize=1;" vertex="1" parent="1">
          <mxGeometry x="-357.5" y="880" width="190" height="60" as="geometry" />
        </mxCell>
        <mxCell id="zc6w6XbYaLyqJV-c7VdD-36" style="edgeStyle=orthogonalEdgeStyle;rounded=0;orthogonalLoop=1;jettySize=auto;html=1;entryX=1;entryY=0.5;entryDx=0;entryDy=0;" edge="1" parent="1" source="zc6w6XbYaLyqJV-c7VdD-29" target="zc6w6XbYaLyqJV-c7VdD-31">
          <mxGeometry relative="1" as="geometry">
            <Array as="points">
              <mxPoint x="-90" y="1010" />
              <mxPoint x="-90" y="470" />
            </Array>
          </mxGeometry>
        </mxCell>
        <mxCell id="zc6w6XbYaLyqJV-c7VdD-29" value="ค่าที่ผู้ใช้กรอก -= re x เลขRoman&amp;nbsp;" style="rounded=0;whiteSpace=wrap;html=1;" vertex="1" parent="1">
          <mxGeometry x="-367.25" y="980" width="209.5" height="60" as="geometry" />
        </mxCell>
        <mxCell id="zc6w6XbYaLyqJV-c7VdD-33" value="" style="edgeStyle=orthogonalEdgeStyle;rounded=0;orthogonalLoop=1;jettySize=auto;html=1;" edge="1" parent="1" source="zc6w6XbYaLyqJV-c7VdD-31" target="zc6w6XbYaLyqJV-c7VdD-17">
          <mxGeometry relative="1" as="geometry" />
        </mxCell>
        <mxCell id="zc6w6XbYaLyqJV-c7VdD-31" value="" style="ellipse;whiteSpace=wrap;html=1;aspect=fixed;" vertex="1" parent="1">
          <mxGeometry x="-425.5" y="457.5" width="25" height="25" as="geometry" />
        </mxCell>
        <mxCell id="zc6w6XbYaLyqJV-c7VdD-34" value="END" style="ellipse;whiteSpace=wrap;html=1;" vertex="1" parent="1">
          <mxGeometry x="-593" y="670" width="120" height="80" as="geometry" />
        </mxCell>
      </root>
    </mxGraphModel>
  </diagram>
</mxfile>
